<?xml version="1.0" encoding="utf-8"?>
<!-- Generator: Adobe Illustrator 20.1.0, SVG Export Plug-In . SVG Version: 6.00 Build 0)  -->
<svg version="1.1" id="Слой_1" xmlns="http://www.w3.org/2000/svg" xmlns:xlink="http://www.w3.org/1999/xlink" x="0px" y="0px"
	 viewBox="0 0 42 42" style="enable-background:new 0 0 42 42;" xml:space="preserve">
<style type="text/css">
	.st0{fill:#E94E1B;}
</style>
<g>
	<path id="XMLID_4493_" class="st0" d="M9.4,9.6h5.1v16.3c0,1.7-0.3,4.4-0.3,4.4h0.1c0,0,1.4-2.7,2.4-4.4L27.4,9.6h5.1v28.3h-5.1
		V21.6c0-1.7,0.3-4.4,0.3-4.4h-0.1c0,0-1.3,2.7-2.3,4.4L14.5,37.9H9.4V9.6z M14.7,2.8V2.3h3.9v0.5c0,1.7,1.4,2.5,2.7,2.5
		c1.3,0,2.7-0.8,2.7-2.6V2.3h3.8v0.5c0,3.5-3.1,5.5-6.5,5.5C17.8,8.3,14.7,6.4,14.7,2.8z"/>
</g>
</svg>
