<?xml version="1.0" encoding="utf-8"?>
<!-- Generator: Adobe Illustrator 20.1.0, SVG Export Plug-In . SVG Version: 6.00 Build 0)  -->
<svg version="1.1" id="Слой_1" xmlns="http://www.w3.org/2000/svg" xmlns:xlink="http://www.w3.org/1999/xlink" x="0px" y="0px"
	 viewBox="0 0 31 41" style="enable-background:new 0 0 31 41;" xml:space="preserve">
<style type="text/css">
	.st0{fill:#E94E1B;}
</style>
<g>
	<path id="XMLID_4493_" class="st0" d="M3.9,9.1h5.1v16.3c0,1.7-0.3,4.4-0.3,4.4h0.1c0,0,1.4-2.7,2.4-4.4L21.9,9.1H27v28.3h-5.1
		V21.1c0-1.7,0.3-4.4,0.3-4.4h-0.1c0,0-1.3,2.7-2.3,4.4L9,37.4H3.9V9.1z M9.2,2.3V1.8h3.9v0.5c0,1.7,1.4,2.5,2.7,2.5
		c1.3,0,2.7-0.8,2.7-2.6V1.8h3.8v0.5c0,3.5-3.1,5.5-6.5,5.5C12.3,7.8,9.2,5.9,9.2,2.3z"/>
</g>
</svg>
